<?xml version="1.0" encoding="UTF-8" standalone="no"?>
<!-- Created with Inkscape (http://www.inkscape.org/) -->

<svg
   width="152.14691mm"
   height="76.791908mm"
   viewBox="0 0 152.14691 76.791908"
   version="1.1"
   id="svg1"
   xml:space="preserve"
   inkscape:version="1.1.1 (3bf5ae0d25, 2021-09-20)"
   sodipodi:docname="krtinec.svg"
   xmlns:inkscape="http://www.inkscape.org/namespaces/inkscape"
   xmlns:sodipodi="http://sodipodi.sourceforge.net/DTD/sodipodi-0.dtd"
   xmlns="http://www.w3.org/2000/svg"
   xmlns:svg="http://www.w3.org/2000/svg"><sodipodi:namedview
     id="namedview1"
     pagecolor="#ffffff"
     bordercolor="#000000"
     borderopacity="0.25"
     inkscape:showpageshadow="2"
     inkscape:pageopacity="0.0"
     inkscape:pagecheckerboard="0"
     inkscape:deskcolor="#d1d1d1"
     inkscape:document-units="mm"
     inkscape:zoom="0.73139029"
     inkscape:cx="325.40766"
     inkscape:cy="101.8608"
     inkscape:window-width="1920"
     inkscape:window-height="991"
     inkscape:window-x="-9"
     inkscape:window-y="-9"
     inkscape:window-maximized="1"
     inkscape:current-layer="layer2"
     inkscape:pageshadow="0"
     showgrid="false" /><defs
     id="defs1" /><g
     inkscape:groupmode="layer"
     id="layer2"
     inkscape:label="Layer 2"
     transform="translate(-29.659748,-128.35574)"><g
       id="g13"
       transform="translate(-0.51159735,1.0231947)"><path
         style="fill:#c9845d;fill-opacity:1;stroke:#c9845d;stroke-width:0.25;stroke-linecap:round;stroke-linejoin:round;stroke-opacity:1"
         d="m 31.472595,188.47381 c 0,0 8.79073,-16.99842 11.914053,-24.69048 2.785253,-6.85948 8.519712,-25.75885 10.876446,-28.66823 3.645922,-9.49388 19.521502,-8.01336 20.077345,-0.18087 5.171456,-4.00931 6.978083,-1.49926 9.586478,-0.54264 -0.154079,-3.60443 7.155053,-6.49816 9.04385,-0.90438 1.965372,-0.69715 7.907103,-3.61615 12.661383,0.18088 1.01967,-5.52549 13.6467,-10.64944 20.07923,-0.002 2.04872,-2.38837 4.9262,-2.78773 8.68021,-1.08339 4.51974,-6.30882 8.05678,-2.79062 11.57613,0.90439 2.64303,-4.24747 10.09273,-2.41233 11.87581,0.61943 4.06778,8.47059 8.66595,16.48657 11.64008,25.89456 9.07084,25.88882 21.37823,33.92122 3.77648,33.83874 -1.54385,4.41546 -8.10107,3.70721 -11.58899,3.55891 -5.65276,1.79482 -11.51452,3.21344 -19.68267,0.48056 -10.74522,0.86479 -21.59043,4.62894 -32.01523,-3.79841 -10.796888,3.58492 -21.219535,7.72586 -37.803287,2.71315 -4.102972,-1.01141 -20.482539,0.90088 -24.654129,2.34043 -5.63411,1.94424 -21.669184,-1.8529 -16.043189,-10.66077 z"
         id="path1"
         sodipodi:nodetypes="cscccccccccccccccsc" /><ellipse
         style="fill:#9d5e3f;fill-opacity:1;stroke:#9d5e3f;stroke-width:0.25;stroke-linecap:round;stroke-linejoin:round;stroke-opacity:1"
         id="path2"
         cx="64.269417"
         cy="149.51433"
         rx="4.2846279"
         ry="3.5811815" /><ellipse
         style="fill:#9d5e3f;fill-opacity:1;stroke:#9d5e3f;stroke-width:0.25;stroke-linecap:round;stroke-linejoin:round;stroke-opacity:1"
         id="path3"
         cx="78.977844"
         cy="162.30426"
         rx="5.5636215"
         ry="5.1159735" /><ellipse
         style="fill:#9d5e3f;fill-opacity:1;stroke:#9d5e3f;stroke-width:0.25;stroke-linecap:round;stroke-linejoin:round;stroke-opacity:1"
         id="path4"
         cx="106.54015"
         cy="175.66974"
         rx="1.6626914"
         ry="1.7266411" /><ellipse
         style="fill:#9d5e3f;fill-opacity:1;stroke:#9d5e3f;stroke-width:0.25;stroke-linecap:round;stroke-linejoin:round;stroke-opacity:1"
         id="path5"
         cx="61.58353"
         cy="194.21515"
         rx="7.8658094"
         ry="6.3310175" /><ellipse
         style="fill:#9d5e3f;fill-opacity:1;stroke:#9d5e3f;stroke-width:0.25;stroke-linecap:round;stroke-linejoin:round;stroke-opacity:1"
         id="path6"
         cx="80.960281"
         cy="194.1512"
         rx="6.1391683"
         ry="5.8833694" /><ellipse
         style="fill:#9d5e3f;fill-opacity:1;stroke:#9d5e3f;stroke-width:0.25;stroke-linecap:round;stroke-linejoin:round;stroke-opacity:1"
         id="path7"
         cx="54.29327"
         cy="173.62335"
         rx="3.3893325"
         ry="3.6451311" /><ellipse
         style="fill:#9d5e3f;fill-opacity:1;stroke:#9d5e3f;stroke-width:0.25;stroke-linecap:round;stroke-linejoin:round;stroke-opacity:1"
         id="path8"
         cx="132.50372"
         cy="178.41959"
         rx="4.9880743"
         ry="5.1159735" /><ellipse
         style="fill:#9d5e3f;fill-opacity:1;stroke:#9d5e3f;stroke-width:0.25;stroke-linecap:round;stroke-linejoin:round;stroke-opacity:1"
         id="path9"
         cx="155.84535"
         cy="195.04649"
         rx="11.319092"
         ry="8.9529543" /><ellipse
         style="fill:#9d5e3f;fill-opacity:1;stroke:#9d5e3f;stroke-width:0.25;stroke-linecap:round;stroke-linejoin:round;stroke-opacity:1"
         id="path10"
         cx="161.28107"
         cy="166.7168"
         rx="3.4532821"
         ry="3.0056345" /><ellipse
         style="fill:#9d5e3f;fill-opacity:1;stroke:#9d5e3f;stroke-width:0.25;stroke-linecap:round;stroke-linejoin:round;stroke-opacity:1"
         id="path11"
         cx="146.57265"
         cy="146.06105"
         rx="3.7090807"
         ry="3.9648795" /><ellipse
         style="fill:#9d5e3f;fill-opacity:1;stroke:#9d5e3f;stroke-width:0.25;stroke-linecap:round;stroke-linejoin:round;stroke-opacity:1"
         id="path12"
         cx="110.69688"
         cy="151.62466"
         rx="3.5172317"
         ry="3.6451311" /><ellipse
         style="fill:#9d5e3f;fill-opacity:1;stroke:#9d5e3f;stroke-width:0.25;stroke-linecap:round;stroke-linejoin:round;stroke-opacity:1"
         id="path13"
         cx="127.00404"
         cy="140.62532"
         rx="3.7090807"
         ry="3.6451311" /></g></g></svg>
